<?xml version="1.0" encoding="UTF-8" standalone="no"?>
<!-- Uploaded to: SVG Repo, www.svgrepo.com, Generator: SVG Repo Mixer Tools -->

<svg
   height="800px"
   width="800px"
   version="1.1"
   id="Layer_1"
   viewBox="0 0 392.598 392.598"
   xml:space="preserve"
   sodipodi:docname="favicon.svg"
   inkscape:version="1.3.2 (091e20e, 2023-11-25, custom)"
   xmlns:inkscape="http://www.inkscape.org/namespaces/inkscape"
   xmlns:sodipodi="http://sodipodi.sourceforge.net/DTD/sodipodi-0.dtd"
   xmlns="http://www.w3.org/2000/svg"
   xmlns:svg="http://www.w3.org/2000/svg"><defs
   id="defs7" /><sodipodi:namedview
   id="namedview7"
   pagecolor="#4d4d4d"
   bordercolor="#666666"
   borderopacity="1.0"
   inkscape:showpageshadow="2"
   inkscape:pageopacity="0.0"
   inkscape:pagecheckerboard="0"
   inkscape:deskcolor="#d1d1d1"
   inkscape:zoom="0.65760931"
   inkscape:cx="408.29714"
   inkscape:cy="457.71858"
   inkscape:window-width="1920"
   inkscape:window-height="995"
   inkscape:window-x="-9"
   inkscape:window-y="347"
   inkscape:window-maximized="1"
   inkscape:current-layer="Layer_1" />
<path
   id="rect1"
   style="fill:#ffffff;stroke-width:0;stroke-linecap:round;stroke-linejoin:round;paint-order:stroke fill markers"
   d="m 117.7794,0 h 157.03919 c 65.24979,0 117.7794,52.529614 117.7794,117.7794 v 157.03919 c 0,65.24979 -52.52961,117.7794 -117.7794,117.7794 H 117.7794 C 52.529614,392.59799 0,340.06838 0,274.81859 V 117.7794 C 0,52.529614 52.529614,0 117.7794,0 Z" /><path
   id="path8"
   style="fill:#ffffff;stroke-width:0;stroke-linecap:round;stroke-linejoin:round;paint-order:stroke fill markers"
   d="m 341.91315,262.17566 a 77.05542,77.002289 0 0 1 -77.05542,77.00229 77.05542,77.002289 0 0 1 -77.05542,-77.00229 77.05542,77.002289 0 0 1 77.05542,-77.00229 77.05542,77.002289 0 0 1 77.05542,77.00229 z" /><path
   style="fill:#ffffff;stroke-width:0.817521"
   d="m 169.99093,88.881668 c 0,-19.448821 -15.80186,-35.250681 -35.25066,-35.250681 -19.44881,0 -35.250675,15.854999 -35.250675,35.250681 0,19.395692 15.801885,35.250682 35.250675,35.250682 19.44882,0 35.25067,-15.80186 35.25066,-35.250682 z"
   id="path1" />
<path
   style="fill:#194f82;stroke-width:0.817521"
   d="m 134.74025,35.820478 c -29.22635,0 -53.061166,23.835638 -53.061166,53.06119 0,29.225562 23.782476,53.061182 53.061166,53.061182 29.2787,0 53.06121,-23.83563 53.06121,-53.061182 0,-29.225552 -23.83564,-53.06119 -53.06121,-53.06119 z m -35.250655,53.06119 c 0,-19.448821 15.801855,-35.250681 35.250655,-35.250681 19.44884,0 35.25069,15.80186 35.25069,35.250681 0,19.448822 -15.80186,35.250682 -35.25068,35.250682 -19.44881,0 -35.250665,-15.80186 -35.250665,-35.250682 z"
   id="path2" />
<path
   style="fill:#56ace0;stroke-width:0.817521"
   d="m 169.99093,261.91239 c 0,-28.06303 12.31433,-53.27292 31.76314,-70.60763 -3.01257,-2.80082 -6.55325,-4.91494 -10.41113,-6.34233 -7.50484,-2.58991 -15.11513,-4.65088 -22.56684,-6.18373 l -25.79034,64.79425 c -2.95942,7.50484 -13.58228,7.50484 -16.5417,0 l -25.79033,-64.89971 c -7.504828,1.53285 -15.11513,3.59382 -22.566832,6.18373 -8.614217,2.95942 -15.220603,9.61896 -18.708964,17.81051 h 28.748937 c 4.914935,0 8.931415,3.96334 8.931415,8.93141 0,4.91494 -3.963341,8.93142 -8.931415,8.93142 H 56.575472 v 15.855 H 70.89762 c 4.914935,0 8.931415,3.96334 8.931415,8.93141 0,4.91494 -3.963341,8.93142 -8.931415,8.93142 H 56.575472 v 24.57549 H 171.52378 c -0.89845,-5.54851 -1.53285,-11.15098 -1.53285,-16.91124 z"
   id="path3" />
<path
   style="fill:#ffc10d;stroke-width:0.817521"
   d="m 272.67811,203.24873 c 0.68671,1.2688 1.11018,2.74852 1.11018,4.28054 v 54.38231 c 0,4.91494 -3.96334,8.93141 -8.93142,8.93141 h -29.33182 c -4.91493,0 -8.87908,-3.96334 -8.87908,-8.93141 0,-4.91494 3.96333,-8.8791 8.87908,-8.8791 h 20.40042 v -45.50402 c 0,-1.58518 0.42267,-3.01257 1.11019,-4.28054 -28.96149,3.85788 -51.36976,28.69743 -51.36976,58.66366 0,32.66159 26.53103,59.19178 59.1918,59.19178 32.60846,0 59.19178,-26.53101 59.19178,-59.19178 -8.1e-4,-30.01855 -22.40906,-54.85729 -51.37137,-58.66285 z"
   id="path4" />
<g
   id="g7"
   transform="matrix(0.81752083,0,0,0.81752083,38.764963,35.820478)">
	<path
   style="fill:#194f82"
   d="m 276.558,160.517 c -21.657,0 -41.891,6.077 -59.216,16.485 -6.594,-6.853 -14.545,-11.96 -23.596,-15.127 -13.317,-4.655 -26.764,-7.952 -39.952,-10.02 -5.042,-0.776 -9.956,2.004 -11.83,6.723 l -24.566,62.061 -24.63,-62.125 c -1.875,-4.719 -6.788,-7.499 -11.83,-6.723 -13.382,2.069 -26.828,5.495 -39.952,10.02 C 16.485,170.408 0,193.875 0,220.38 v 87.79 c 0,6.012 4.848,10.925 10.925,10.925 h 157.802 c 17.002,42.99 58.893,73.503 107.895,73.503 64,0 115.976,-52.105 115.976,-115.976 0,-63.871 -52.17,-116.105 -116.04,-116.105 z M 162.263,297.18 H 21.657 v -30.061 h 0.129 17.519 c 6.012,0 10.925,-4.848 10.925,-10.925 0,-6.077 -4.848,-10.925 -10.925,-10.925 H 21.786 v -19.394 h 38.529 c 6.012,0 10.925,-4.848 10.925,-10.925 0,-6.012 -4.848,-10.925 -10.925,-10.925 H 25.212 c 4.331,-10.02 12.412,-18.101 22.885,-21.786 9.115,-3.168 18.36,-5.689 27.604,-7.564 l 31.547,79.386 c 3.62,9.18 16.614,9.18 20.234,0 L 158.9,174.675 c 9.18,1.875 18.489,4.396 27.604,7.564 4.784,1.681 9.051,4.331 12.735,7.758 -23.79,21.269 -38.853,52.105 -38.853,86.368 -0.063,7.239 0.713,14.092 1.877,20.815 z m 114.295,73.567 v 0 c -0.065,0 -0.065,0 -0.065,0 -51.911,0 -94.19,-42.279 -94.19,-94.19 0,-51.911 42.279,-94.19 94.19,-94.19 0,0 0,0 0.065,0 0.065,0 0,0 0.065,0 51.911,0 94.19,42.279 94.19,94.19 -0.066,51.912 -42.344,94.19 -94.255,94.19 z"
   id="path5" />
	<path
   style="display:inline;fill:#194f82"
   d="m 276.558,182.368 v 0 c 51.846,0 94.125,42.279 94.125,94.19 0,51.911 -42.279,94.19 -94.125,94.19 0,0 0,0 0.065,0 51.911,0 94.19,-42.279 94.19,-94.19 -0.066,-51.912 -42.344,-94.19 -94.255,-94.19 z"
   id="path6" />
	<path
   style="fill:#194f82"
   d="m 276.558,199.111 c -6.012,0 -10.925,4.848 -10.925,10.925 v 55.661 h -24.954 c -6.012,0 -10.925,4.848 -10.925,10.925 0,6.012 4.848,10.925 10.925,10.925 h 35.879 c 6.012,0 10.925,-4.848 10.925,-10.925 v -66.586 c -0.065,-6.012 -4.913,-10.925 -10.925,-10.925 z"
   id="path7" />
</g>
</svg>
