<svg xmlns="http://www.w3.org/2000/svg" viewBox="0 0 24 24" fill="none" aria-hidden="true">
  <path
    fill="#ffffff"
    d="M 23.999399,12 A 11.9997,11.9997 0 0 1 11.9997,23.9997 11.9997,11.9997 0 0 1 0,12 11.9997,11.9997 0 0 1 11.9997,3.0040741e-4 11.9997,11.9997 0 0 1 23.999399,12 Z"
  />
  <path
    fill="#194f82"
    d="m 6.1896873,3.2528364 c -2.82676,1.8815563 -4.6894685,5.096833 -4.6894685,8.7471626 0,1.699558 0.4037945,3.304823 1.1206723,4.725075 h 0.4543526 c 3.3125713,0 6.4395942,-1.52935 8.4733183,-4.144204 l 0.451823,-0.580871 C 10.353644,9.3652453 10.085259,6.0960293 11.280283,3.228014 l 0.720102,-1.7281802 c -1.271361,0 -2.4899993,0.2259636 -3.6178639,0.6399116 L 7.993616,2.9435541 C 6.8080736,5.7998722 6.5081049,8.8803058 7.0911897,11.848272 7.1750335,12.275105 6.897031,12.689021 6.4702623,12.772811 6.0434831,12.856708 5.6295455,12.578664 5.5457017,12.151937 4.9644441,9.1932108 5.1797185,6.1342604 6.1896873,3.2528364 Z"
  />
  <path
    fill="#56ace0"
    opacity="0.7"
    d="m 14.263275,5.7842794 c -0.425572,-0.09008 -0.843478,0.1818314 -0.933569,0.6073296 -0.09009,0.4254982 0.181862,0.8434572 0.607329,0.9335487 2.709988,0.5737395 5.219842,1.9211209 7.208784,3.9092743 l 0.0023,0.0023 1.330161,1.352002 0.0061,-0.006 c -0.08945,1.634877 -0.552833,3.170105 -1.306116,4.521791 L 20.925211,16.725074 C 18.95727,13.773162 15.644153,11.999999 12.096357,11.999999 H 12.00007 C 10.353434,9.3652453 10.085049,6.0960293 11.280073,3.228014 L 12.00007,1.4998338 c 5.189288,0 9.499291,3.7642674 10.348438,8.7111482 l -0.08212,-0.08338 -0.0045,-0.0046 C 20.055166,7.9163065 17.270207,6.4209044 14.263275,5.7842794 Z"
  />
  <path
    fill="#001841"
    opacity="0.4"
    d="m 15.605302,17.588818 c 0.354905,-0.251375 0.438907,-0.742887 0.187533,-1.097897 -0.251374,-0.354907 -0.742887,-0.438907 -1.097793,-0.187534 -2.727314,1.931401 -6.0314316,3.091774 -9.2757203,3.091774 H 4.5462854 C 3.7728222,18.615524 3.120804,17.715239 2.6209856,16.725074 h 0.4543526 c 3.3125713,0 6.4396047,-1.52935 8.4733288,-4.144204 l 0.451824,-0.580871 h 0.09629 c 3.547796,0 6.860913,1.773163 8.828854,4.725075 l 0.252948,0.379475 c -1.793954,3.218618 -5.231811,5.395615 -9.178088,5.395615 -2.0251678,0 -3.9164897,-0.573307 -5.5204111,-1.566518 3.2506834,-0.22313 6.4550301,-1.453958 9.1252221,-3.344828 z"
  />
</svg>
